<svg width="60" height="60" viewBox="0 0 60 60" fill="none" xmlns="http://www.w3.org/2000/svg">
<path d="M0 30C0 13.4315 13.4315 0 30 0C46.5685 0 60 13.4315 60 30C60 46.5685 46.5685 60 30 60C13.4315 60 0 46.5685 0 30Z" fill="#C4C4C4"/>
<path fill-rule="evenodd" clip-rule="evenodd" d="M34.9402 21.4392C35.2215 21.158 35.603 21 36.0007 21C36.3985 21 36.7799 21.158 37.0612 21.4392L40.0612 24.4392C40.3424 24.7205 40.5004 25.1019 40.5004 25.4997C40.5004 25.8974 40.3424 26.2789 40.0612 26.5602L26.5612 40.0602C26.397 40.2249 26.1967 40.3492 25.9762 40.4232L21.4762 41.9232C21.2118 42.0117 20.928 42.0248 20.6566 41.961C20.3852 41.8971 20.137 41.7589 19.9398 41.5619C19.7425 41.3648 19.6041 41.1167 19.5401 40.8453C19.4761 40.574 19.4889 40.2901 19.5772 40.0257L21.0772 35.5257C21.151 35.3046 21.2753 35.1038 21.4402 34.9392L34.9402 21.4392ZM36.0007 22.4997L39.0007 25.4997L25.5007 38.9997L21.0007 40.4997L22.5007 35.9997L36.0007 22.4997Z" fill="#333333"/>
<path fill-rule="evenodd" clip-rule="evenodd" d="M36.219 29.0308L32.469 25.2808L33.531 24.2188L37.281 27.9688L36.2205 29.0308H36.219ZM22.5 34.4998V35.2498C22.5 35.4487 22.579 35.6394 22.7197 35.7801C22.8603 35.9207 23.0511 35.9998 23.25 35.9998H24V36.7498C24 36.9487 24.079 37.1394 24.2197 37.2801C24.3603 37.4207 24.5511 37.4998 24.75 37.4998H25.5V38.2498C25.5 38.4487 25.579 38.6394 25.7197 38.7801C25.8603 38.9207 26.0511 38.9998 26.25 38.9998H27V36.7498C27 36.5508 26.921 36.3601 26.7803 36.2194C26.6397 36.0788 26.4489 35.9998 26.25 35.9998H25.5V35.2498C25.5 35.0508 25.421 34.8601 25.2803 34.7194C25.1397 34.5788 24.9489 34.4998 24.75 34.4998H22.5Z" fill="#333333"/>
</svg>
