<svg id="Layer_1" data-name="Layer 1" xmlns="http://www.w3.org/2000/svg" viewBox="0 0 236 114"><defs><style>.cls-1{fill:#fff;}</style></defs><polygon class="cls-1" points="39.23 75.63 51.94 75.63 61.9 53.94 71.44 75.63 83.77 75.63 61.9 28.94 39.23 75.63"/><path class="cls-1" d="M174.9,28.94l-18.06,37.2-7.06-9.21a12.72,12.72,0,0,0,7.44-4.4,13.41,13.41,0,0,0,2.53-8.48,15.65,15.65,0,0,0-.95-5.47A12.68,12.68,0,0,0,156,34.09,13,13,0,0,0,151.3,31a18.15,18.15,0,0,0-6.68-1.13H126.09V75.7H138V58.08L149.36,75.7h14.82l-.06-.07h.82l10-21.69,9.54,21.69h12.33Zm-29.25,20a8.71,8.71,0,0,1-5.41,1.46H138V39.07h2.25a8.65,8.65,0,0,1,5.41,1.46,5,5,0,0,1,1.88,4.19A5,5,0,0,1,145.65,48.91Z"/><path class="cls-1" d="M101.19,29a23.33,23.33,0,0,0-17,6.94,22.43,22.43,0,0,0-7.09,16.61q0,11,7.77,17.8A24.18,24.18,0,0,0,118,69.62,22.49,22.49,0,0,0,125,52.86,22.87,22.87,0,0,0,118,36,22.89,22.89,0,0,0,101.19,29Zm8.19,32.25a11.76,11.76,0,0,1-20-8.57,11.42,11.42,0,0,1,3.41-8.41,11.82,11.82,0,0,1,16.67,0,12.3,12.3,0,0,1,0,17Z"/><path class="cls-1" d="M60,84.94l1.55,5.84,1.92-5.84h1.88l1.92,5.84,1.56-5.84h2.46l-2.7,9h-2.4l-1.78-5.25L62.67,94H60.28l-2.7-9Z"/><path class="cls-1" d="M73.62,91.27q0,1.41,1.32,1.41A1.18,1.18,0,0,0,76,92.1h2.1a2.94,2.94,0,0,1-3.18,2.11A4.09,4.09,0,0,1,73.5,94a3.26,3.26,0,0,1-1.11-.67,2.9,2.9,0,0,1-.72-1,3.59,3.59,0,0,1-.25-1.34,3.82,3.82,0,0,1,.24-1.39,2.91,2.91,0,0,1,.69-1,2.85,2.85,0,0,1,1.07-.66,4,4,0,0,1,1.42-.24,3.93,3.93,0,0,1,1.41.24,2.79,2.79,0,0,1,1,.67A2.93,2.93,0,0,1,78,89.6a4.13,4.13,0,0,1,.23,1.45v.22ZM76.16,90a1.34,1.34,0,0,0-.44-.73A1.26,1.26,0,0,0,74.9,89a1.14,1.14,0,0,0-1.22,1Z"/><path class="cls-1" d="M80.79,84.94h2.06l-2.21,4H79.25Z"/><path class="cls-1" d="M84.15,87.83h2.18v1a2.47,2.47,0,0,1,.85-.85,2.33,2.33,0,0,1,1.17-.29h.19l.23,0V89.8a2,2,0,0,0-.93-.22A1.41,1.41,0,0,0,86.7,90a2,2,0,0,0-.37,1.32V94H84.15Z"/><path class="cls-1" d="M91.77,91.27q0,1.41,1.32,1.41a1.17,1.17,0,0,0,1.07-.58h2.1a2.93,2.93,0,0,1-3.18,2.11A4.13,4.13,0,0,1,91.65,94a3.26,3.26,0,0,1-1.11-.67,3,3,0,0,1-.71-1,3.4,3.4,0,0,1-.25-1.34,3.82,3.82,0,0,1,.24-1.39,3,3,0,0,1,.68-1,3,3,0,0,1,1.08-.66A4,4,0,0,1,93,87.6a3.84,3.84,0,0,1,1.4.24,2.83,2.83,0,0,1,1.06.67,2.93,2.93,0,0,1,.66,1.09,4.37,4.37,0,0,1,.23,1.45v.22ZM94.32,90a1.3,1.3,0,0,0-.45-.73,1.24,1.24,0,0,0-.81-.27,1.21,1.21,0,0,0-.82.26,1.19,1.19,0,0,0-.41.74Z"/><path class="cls-1" d="M103.83,87.83V91.3a1.11,1.11,0,1,0,2.21,0V87.83h2.17v3.89a2.2,2.2,0,0,1-.82,1.87,5.17,5.17,0,0,1-4.91,0,2.23,2.23,0,0,1-.82-1.87V87.83Z"/><path class="cls-1" d="M109.69,87.83h2.17v.78a2.52,2.52,0,0,1,.9-.73,2.93,2.93,0,0,1,1.07-.18,2.68,2.68,0,0,1,1.11.21,2.31,2.31,0,0,1,.79.59,1.87,1.87,0,0,1,.36.7,3.81,3.81,0,0,1,.09.87V94H114V90.88a3,3,0,0,0-.07-.74.88.88,0,0,0-.23-.45.78.78,0,0,0-.32-.2,1.23,1.23,0,0,0-.39-.06,1,1,0,0,0-.84.33,1.34,1.34,0,0,0-.3.94V94h-2.17Z"/><path class="cls-1" d="M121.74,89.41a2.63,2.63,0,0,0-1.18-.31.85.85,0,0,0-.48.12.37.37,0,0,0-.19.33.4.4,0,0,0,0,.17.32.32,0,0,0,.13.13,1.16,1.16,0,0,0,.3.1l.52.12a2.52,2.52,0,0,1,1.35.65,1.64,1.64,0,0,1,.44,1.18,2.19,2.19,0,0,1-.21,1,2.24,2.24,0,0,1-.6.73,3.1,3.1,0,0,1-.93.45,4,4,0,0,1-1.19.16,4.85,4.85,0,0,1-2.46-.7l.8-1.54a3,3,0,0,0,1.72.62.87.87,0,0,0,.5-.13.41.41,0,0,0,.19-.33.56.56,0,0,0,0-.2.35.35,0,0,0-.13-.15,1.29,1.29,0,0,0-.28-.12l-.49-.11a2.82,2.82,0,0,1-1.41-.61,1.51,1.51,0,0,1-.4-1.11,2.34,2.34,0,0,1,.19-.93,2,2,0,0,1,.56-.7,2.55,2.55,0,0,1,.87-.44,3.63,3.63,0,0,1,1.13-.16,5,5,0,0,1,2,.4Z"/><path class="cls-1" d="M126.36,89.64V94h-2.17V89.64h-.72V87.83h.72V86h2.17v1.85h1.23v1.81Z"/><path class="cls-1" d="M128.28,90.85a3,3,0,0,1,.27-1.27,3.28,3.28,0,0,1,.77-1,3.77,3.77,0,0,1,1.17-.69A4.42,4.42,0,0,1,132,87.6a4.13,4.13,0,0,1,1.47.25,3.51,3.51,0,0,1,1.18.68,3,3,0,0,1,.77,1,3.32,3.32,0,0,1,0,2.67,3.24,3.24,0,0,1-.78,1,3.4,3.4,0,0,1-1.18.67,4.52,4.52,0,0,1-1.49.24,4.36,4.36,0,0,1-1.47-.24,3.31,3.31,0,0,1-1.15-.68,3.25,3.25,0,0,1-.77-1.06A3.4,3.4,0,0,1,128.28,90.85Zm2.29,0a1.48,1.48,0,0,0,.11.57,1.77,1.77,0,0,0,.3.45,1.27,1.27,0,0,0,.45.3,1.41,1.41,0,0,0,1.09,0,1.23,1.23,0,0,0,.44-.3,1.37,1.37,0,0,0,.3-.45,1.31,1.31,0,0,0,.12-.56,1.33,1.33,0,0,0-.12-.55,1.37,1.37,0,0,0-.3-.45,1.55,1.55,0,0,0-.44-.3,1.42,1.42,0,0,0-.55-.1,1.4,1.4,0,0,0-.54.1,1.61,1.61,0,0,0-.45.3,1.77,1.77,0,0,0-.3.45A1.41,1.41,0,0,0,130.57,90.88Z"/><path class="cls-1" d="M139.09,97.06h-2.17V87.83h2.17v.68a2.29,2.29,0,0,1,1.9-.87,2.82,2.82,0,0,1,1.22.26,3.07,3.07,0,0,1,1.65,1.74,3.65,3.65,0,0,1,.23,1.29,3.54,3.54,0,0,1-.23,1.27,3.34,3.34,0,0,1-.65,1,2.88,2.88,0,0,1-1,.7,3.06,3.06,0,0,1-1.22.25,2.59,2.59,0,0,1-1.92-.79Zm2.74-6.13a1.42,1.42,0,0,0-.11-.55,1.2,1.2,0,0,0-.29-.45,1.57,1.57,0,0,0-.45-.31,1.47,1.47,0,0,0-.56-.11,1.41,1.41,0,0,0-.54.11,1.32,1.32,0,0,0-.44.3,1.77,1.77,0,0,0-.3.45,1.41,1.41,0,0,0-.11.54,1.33,1.33,0,0,0,.11.54,1.23,1.23,0,0,0,.3.44,1.27,1.27,0,0,0,.45.3,1.25,1.25,0,0,0,.54.12,1.41,1.41,0,0,0,.54-.11,1.23,1.23,0,0,0,.44-.3,1.54,1.54,0,0,0,.3-.45A1.17,1.17,0,0,0,141.83,90.93Z"/><path class="cls-1" d="M147.5,97.06h-2.17V87.83h2.17v.68a2.3,2.3,0,0,1,1.9-.87,2.83,2.83,0,0,1,1.23.26,3.09,3.09,0,0,1,1.64,1.74,3.44,3.44,0,0,1,.23,1.29,3.33,3.33,0,0,1-.23,1.27,3.16,3.16,0,0,1-.65,1,2.94,2.94,0,0,1-1,.7,3.14,3.14,0,0,1-1.23.25,2.59,2.59,0,0,1-1.92-.79Zm2.74-6.13a1.42,1.42,0,0,0-.11-.55,1.2,1.2,0,0,0-.29-.45,1.57,1.57,0,0,0-.45-.31,1.47,1.47,0,0,0-.56-.11,1.41,1.41,0,0,0-.54.11,1.19,1.19,0,0,0-.43.3,1.37,1.37,0,0,0-.3.45,1.25,1.25,0,0,0-.12.54,1.33,1.33,0,0,0,.11.54,1.23,1.23,0,0,0,.3.44,1.37,1.37,0,0,0,.45.3,1.25,1.25,0,0,0,.54.12,1.33,1.33,0,0,0,.54-.11,1.23,1.23,0,0,0,.44-.3,1.37,1.37,0,0,0,.3-.45A1.17,1.17,0,0,0,150.24,90.93Z"/><path class="cls-1" d="M158.49,87.83h2.19V94h-2.19V93.3a2.26,2.26,0,0,1-1.88.88,3,3,0,0,1-1.24-.25,2.91,2.91,0,0,1-1-.69,3,3,0,0,1-.65-1,3.51,3.51,0,0,1-.24-1.31,3.47,3.47,0,0,1,.23-1.25,3,3,0,0,1,.64-1,3,3,0,0,1,2.21-1,2.52,2.52,0,0,1,1.91.8Zm-2.73,3.06a1.3,1.3,0,0,0,.11.56,1.51,1.51,0,0,0,.29.45,1.23,1.23,0,0,0,.44.3,1.51,1.51,0,0,0,.56.11,1.46,1.46,0,0,0,.55-.11,1.23,1.23,0,0,0,.44-.3,1.37,1.37,0,0,0,.3-.45,1.19,1.19,0,0,0,.12-.54,1.25,1.25,0,0,0-.12-.54,1.37,1.37,0,0,0-.3-.45,1.23,1.23,0,0,0-.44-.3,1.46,1.46,0,0,0-.55-.11,1.51,1.51,0,0,0-.56.11,1.23,1.23,0,0,0-.44.3,1.46,1.46,0,0,0-.29.44A1.17,1.17,0,0,0,155.76,90.89Z"/><path class="cls-1" d="M164.33,84v4.41a2.56,2.56,0,0,1,1.92-.8,2.89,2.89,0,0,1,1.25.26,3,3,0,0,1,1,.69,3.17,3.17,0,0,1,.63,1,3.58,3.58,0,0,1,.23,1.27,3.39,3.39,0,0,1-.24,1.28,3.07,3.07,0,0,1-1.64,1.75,3,3,0,0,1-1.23.26,2.26,2.26,0,0,1-1.89-.88V94h-2.18V84Zm2.73,6.9a1.26,1.26,0,0,0-.11-.55,1.37,1.37,0,0,0-.3-.45,1.52,1.52,0,0,0-.44-.31,1.42,1.42,0,0,0-.55-.11,1.37,1.37,0,0,0-.54.11,1.23,1.23,0,0,0-.44.3,1.54,1.54,0,0,0-.3.45,1.25,1.25,0,0,0-.12.54,1.33,1.33,0,0,0,.11.54,1.4,1.4,0,0,0,.75.74,1.3,1.3,0,0,0,.55.12,1.41,1.41,0,0,0,.54-.11,1.32,1.32,0,0,0,.44-.3,1.77,1.77,0,0,0,.3-.45A1.31,1.31,0,0,0,167.06,90.93Z"/><path class="cls-1" d="M172.74,84V94h-2.18V84Z"/><path class="cls-1" d="M176.18,91.27q0,1.41,1.32,1.41a1.18,1.18,0,0,0,1.07-.58h2.1a2.94,2.94,0,0,1-3.18,2.11,4.09,4.09,0,0,1-1.43-.23,3.26,3.26,0,0,1-1.11-.67,2.76,2.76,0,0,1-.71-1,3.41,3.41,0,0,1-.26-1.34,3.82,3.82,0,0,1,.24-1.39,2.91,2.91,0,0,1,.69-1,2.85,2.85,0,0,1,1.07-.66,4,4,0,0,1,1.42-.24,3.93,3.93,0,0,1,1.41.24,2.79,2.79,0,0,1,1.05.67,2.93,2.93,0,0,1,.66,1.09,4.13,4.13,0,0,1,.23,1.45v.22ZM178.72,90a1.34,1.34,0,0,0-.44-.73,1.26,1.26,0,0,0-.82-.27,1.14,1.14,0,0,0-1.22,1Z"/></svg>