<svg width="60" height="60" viewBox="0 0 60 60" fill="none" xmlns="http://www.w3.org/2000/svg">
<path d="M0 30C0 13.4315 13.4315 0 30 0C46.5685 0 60 13.4315 60 30C60 46.5685 46.5685 60 30 60C13.4315 60 0 46.5685 0 30Z" fill="#C4C4C4"/>
<path d="M35.5 19.5L26.5 19.5C26.1023 19.5004 25.721 19.6586 25.4398 19.9398C25.1586 20.221 25.0004 20.6023 25 21L25 23.25L26.5 23.25L26.5 21L35.5 21L35.5 39L26.5 39L26.5 36.75L25 36.75L25 39C25.0004 39.3977 25.1586 39.779 25.4398 40.0602C25.721 40.3414 26.1023 40.4996 26.5 40.5L35.5 40.5C35.8977 40.4996 36.279 40.3414 36.5602 40.0602C36.8414 39.779 36.9996 39.3977 37 39L37 21C36.9996 20.6023 36.8414 20.221 36.5602 19.9398C36.279 19.6586 35.8977 19.5004 35.5 19.5Z" fill="#333333"/>
<path d="M24.5605 26.5605L21.871 29.25L32.5 29.25L32.5 30.75L21.871 30.75L24.5605 33.4395L23.5 34.5L19 30L23.5 25.5L24.5605 26.5605Z" fill="#333333"/>
</svg>
